<svg xmlns="http://www.w3.org/2000/svg" fill="#f2d8b8" viewBox="0 0 386.419 386.419"><path d="M63.445 242.384c-4.235 0-8.423.796-12.447 2.367-16.295 6.36-24.817 23.666-18.997 38.58 4.239 10.86 15.096 17.878 27.661 17.878 4.235 0 8.423-.796 12.447-2.367 7.741-3.021 13.997-8.589 17.617-15.679 3.771-7.387 4.262-15.52 1.381-22.9-4.24-10.861-15.098-17.879-27.662-17.879zm12.92 33.958c-1.947 3.814-5.396 6.842-9.711 8.526-2.279.89-4.632 1.341-6.993 1.341-6.339 0-11.711-3.271-13.687-8.332-2.813-7.208 1.887-15.8 10.477-19.152a19.164 19.164 0 0 1 6.994-1.34c6.339 0 11.711 3.271 13.687 8.332 1.302 3.334 1.029 7.107-.767 10.625zM71.974 87.922c-3.97-1.549-8.102-2.335-12.28-2.335-12.402 0-23.12 6.929-27.306 17.653-2.845 7.289-2.361 15.32 1.362 22.612 3.572 6.996 9.745 12.491 17.381 15.471 3.97 1.549 8.102 2.335 12.281 2.335.001 0 0 0 0 0 12.401 0 23.12-6.93 27.305-17.653 5.747-14.722-2.661-31.806-18.743-38.083zm4.77 32.63c-1.922 4.924-7.155 8.106-13.331 8.106-2.305 0-4.602-.44-6.828-1.309-4.211-1.643-7.576-4.598-9.476-8.318-1.748-3.424-2.014-7.096-.748-10.338 1.922-4.925 7.155-8.107 13.332-8.107 2.305 0 4.601.44 6.826 1.309 8.378 3.27 12.964 11.639 10.225 18.657z"/><path d="M381.691 138.914c.071-.028.14-.064.21-.094.217-.094.427-.195.63-.306.035-.02.072-.032.107-.052.054-.031.103-.067.156-.1a7.624 7.624 0 0 0 .627-.421 7.112 7.112 0 0 0 .859-.753 7.921 7.921 0 0 0 .477-.536 7.564 7.564 0 0 0 .963-1.546 7.442 7.442 0 0 0 .382-1.007 7.258 7.258 0 0 0 .233-1.029 7.434 7.434 0 0 0 .078-1.461 7.455 7.455 0 0 0-.442-2.217c-.021-.057-.035-.114-.057-.171-.018-.046-.041-.089-.06-.135a7.526 7.526 0 0 0-.165-.368 7.328 7.328 0 0 0-.179-.354c-.024-.044-.043-.09-.068-.134-.047-.083-.101-.16-.149-.242-.035-.056-.067-.113-.103-.167-8.702-14.914-23.978-22.685-44.132-22.385-14.464.196-26.472 4.503-26.976 4.687-.039.014-.074.033-.113.048-.037.014-.075.023-.112.038l-139.302 55.775-58.158-21.987a51.188 51.188 0 0 0 3.212-6.718c5.522-14.149 4.55-29.801-2.737-44.073-7.135-13.976-19.521-24.973-34.874-30.965-15.354-5.992-31.914-6.293-46.63-.845-15.03 5.565-26.347 16.42-31.869 30.568-11.264 28.86 5.574 62.49 37.536 75.007l.027.013 65.672 26.157-65.685 26.299-.03.014C9.067 231.976-7.763 265.6 3.499 294.455c5.522 14.148 16.84 25.003 31.868 30.566 6.991 2.588 14.395 3.879 21.891 3.878 8.284 0 16.679-1.578 24.739-4.723 15.354-5.992 27.739-16.989 34.875-30.965 7.287-14.273 8.259-29.925 2.737-44.073a51.23 51.23 0 0 0-3.262-6.804l57.606-22.451 141.657 56.332.012.004a.03.03 0 0 1 .008.004c6.442 2.54 15.825 4.78 25.846 4.78 15.326 0 32.136-5.248 42.147-22.682l.034-.057.046-.077a7.52 7.52 0 0 0 .413-.86c.012-.028.029-.054.041-.083.026-.067.044-.134.068-.201a6.831 6.831 0 0 0 .316-1.122c.023-.115.041-.23.058-.345a6.714 6.714 0 0 0 .073-.748 7.494 7.494 0 0 0-.074-1.459 7.288 7.288 0 0 0-.139-.699 7.678 7.678 0 0 0-.796-1.966 6.719 6.719 0 0 0-.395-.609 7.485 7.485 0 0 0-.707-.845 6.52 6.52 0 0 0-.28-.271 7.623 7.623 0 0 0-.249-.224 7.217 7.217 0 0 0-.335-.265 6.847 6.847 0 0 0-.253-.185 7.267 7.267 0 0 0-.376-.24c-.057-.034-.11-.074-.168-.107-.036-.02-.074-.036-.11-.056a8.204 8.204 0 0 0-.363-.183 6.829 6.829 0 0 0-.349-.16c-.041-.018-.079-.039-.12-.055l-137.036-54.503 138.725-54.067c.016-.006.03-.014.044-.02zM46.612 153.048l-.025-.008-.023-.011c-24.307-9.486-37.357-34.434-29.091-55.611C21.415 87.316 29.62 79.52 40.574 75.464c11.268-4.171 24.042-3.904 35.969.751 11.928 4.655 21.505 13.112 26.968 23.812 5.312 10.404 6.065 21.697 2.123 31.799a36.285 36.285 0 0 1-6.584 10.808c-.035.04-.064.083-.098.123a7.687 7.687 0 0 0-.296.373c-.062.084-.121.17-.18.256a7.065 7.065 0 0 0-.558.973c-.067.14-.128.281-.186.424-.021.052-.046.1-.066.152-.014.036-.022.073-.035.109-.053.147-.1.295-.143.445-.028.096-.056.191-.08.288-.033.132-.06.265-.085.397a6.963 6.963 0 0 0-.062.351c-.016.11-.026.22-.037.331-.013.137-.027.274-.033.411-.004.096-.002.191-.003.287-.001.147-.001.294.007.439.005.096.016.19.025.285.013.143.026.285.048.426.016.107.039.214.06.321.024.124.047.248.078.371.031.126.071.251.108.376.031.101.059.201.094.3.048.138.104.273.161.408.036.085.069.171.107.254.063.136.133.268.204.399.044.082.086.165.134.246.07.12.147.236.224.352.061.092.121.184.186.272.07.096.145.189.22.282.085.105.17.21.261.311.066.073.135.144.205.214.109.113.221.223.337.329.028.025.052.054.081.079.041.037.086.066.128.102.119.1.24.197.365.29.087.065.176.125.265.186a6.647 6.647 0 0 0 .684.411 6.554 6.554 0 0 0 .717.333c.048.02.093.044.142.062l51.923 19.63-27.004 10.813-80.336-31.997zm56.899 133.343c-5.463 10.7-15.041 19.157-26.969 23.812-11.927 4.654-24.702 4.922-35.969.751-10.954-4.055-19.159-11.852-23.101-21.954-8.266-21.177 4.785-46.124 29.091-55.611.012-.004.022-.01.034-.015l.027-.009L319.29 124.192c1.729-.604 31.073-10.501 47.514 4.429L101.958 231.843c-.044.017-.085.04-.128.058a7.682 7.682 0 0 0-1.63.925 7.35 7.35 0 0 0-.365.289c-.035.03-.072.055-.107.085-.036.032-.067.067-.103.1a7.315 7.315 0 0 0-.802.858 7.675 7.675 0 0 0-.222.29 8.389 8.389 0 0 0-.407.627c-.049.085-.094.171-.14.257a7.443 7.443 0 0 0-.194.39c-.04.088-.076.177-.112.266a7.328 7.328 0 0 0-.152.396c-.035.101-.064.203-.095.305a6.79 6.79 0 0 0-.103.371c-.029.12-.053.241-.076.362-.021.11-.042.219-.058.329-.02.135-.033.271-.046.408-.009.101-.018.201-.024.302-.007.14-.008.281-.007.422a6.666 6.666 0 0 0 .039.706c.011.115.024.23.041.345.017.116.039.231.062.346a7.192 7.192 0 0 0 .321 1.144c.016.043.026.087.043.13.011.027.026.051.038.078.131.327.281.647.461.957.019.032.04.061.059.092.151.252.321.496.506.733.061.079.121.157.185.233.038.045.07.092.108.136a36.293 36.293 0 0 1 6.584 10.808c3.943 10.102 3.189 21.395-2.123 31.8zm261.71-28.605c-5.798 5.529-13.684 8.308-23.572 8.201-10.93-.078-20.251-3.616-20.515-3.718l-126.681-50.377 27.969-10.901 142.799 56.795z"/><path d="M173.816 200.343c4.142 0 7.54-3.398 7.54-7.54s-3.398-7.541-7.54-7.541c-4.142 0-7.541 3.399-7.541 7.541s3.399 7.54 7.541 7.54z"/></svg>